<svg width="14" height="14" viewBox="0 0 14 14" fill="none" xmlns="http://www.w3.org/2000/svg">
<path d="M13.7278 11.1323L12.1757 10.0975L10.796 9.17783C10.5297 9.00067 10.1719 9.05875 9.97531 9.31107L9.12157 10.4086C8.93818 10.6468 8.60828 10.7152 8.34529 10.5696C7.76599 10.2474 7.08095 9.94396 5.56946 8.43053C4.05797 6.9171 3.75263 6.234 3.43039 5.65471C3.28478 5.39172 3.35322 5.06182 3.59138 4.87845L4.68892 4.02471C4.94122 3.82816 4.99933 3.47032 4.82217 3.20402L3.93077 1.86679L2.86774 0.272232C2.68681 0.00082087 2.32462 -0.0806626 2.04489 0.0870894L0.818923 0.822573C0.487602 1.01778 0.244054 1.33299 0.138727 1.70287C-0.196531 2.9252 -0.264124 5.62162 4.05723 9.94298C8.37859 14.2643 11.0748 14.1965 12.2971 13.8612C12.667 13.7559 12.9822 13.5124 13.1774 13.181L13.9129 11.9551C14.0807 11.6754 13.9992 11.3132 13.7278 11.1323Z" fill="#55A630"/>
<path d="M8.24998 2.49999C10.5961 2.5026 12.4974 4.40385 12.5 6.74999C12.5 6.88805 12.6119 7 12.75 7C12.8881 7 13 6.88808 13 6.74999C12.9971 4.12784 10.8722 2.00289 8.25001 2C8.11195 2 8 2.11192 8 2.25001C7.99997 2.38804 8.11189 2.49999 8.24998 2.49999Z" fill="#55A630"/>
<path d="M8.21429 3.42859C9.51547 3.43012 10.5699 4.48455 10.5714 5.78571C10.5714 5.90404 10.6673 6 10.7857 6C10.904 6 11 5.90407 11 5.78571C10.9982 4.24795 9.75208 3.00177 8.21429 3C8.09596 3 8 3.09593 8 3.21429C8 3.33266 8.09593 3.42859 8.21429 3.42859Z" fill="#55A630"/>
<path d="M8.24998 5.49999C8.94 5.50081 9.49916 6.05997 9.49998 6.74999C9.49998 6.88805 9.6119 7 9.74999 7C9.88805 7 10 6.88808 10 6.74999C9.9989 5.78396 9.21604 5.0011 8.25001 5C8.11195 5 8 5.11192 8 5.25001C7.99997 5.38807 8.11189 5.49999 8.24998 5.49999Z" fill="#55A630"/>
</svg>
