<svg width="5" height="6" viewBox="0 0 5 6" fill="none" xmlns="http://www.w3.org/2000/svg">
<path d="M3.87223 2.69135V4.88822C3.87223 5.06397 3.93006 5.15187 4.04573 5.15187C4.25153 5.11212 4.44362 5.0171 4.60286 4.87628V5.49939C4.43301 5.61762 4.25296 5.71925 4.06498 5.80295C3.92905 5.85715 3.78464 5.88491 3.63896 5.88481C3.21873 5.88481 2.97002 5.7131 2.89289 5.36959C2.51663 5.69 2.04593 5.8676 1.55888 5.87288C1.39888 5.87764 1.23959 5.8486 1.09076 5.78748C0.941937 5.72637 0.806718 5.63442 0.693333 5.51737C0.57944 5.40129 0.489971 5.26206 0.430562 5.10844C0.371152 4.95476 0.343124 4.79002 0.348252 4.62461C0.347744 4.3001 0.468644 3.98793 0.685615 3.75382C0.953971 3.47439 1.28524 3.26851 1.64952 3.15469L2.90833 2.70534V2.43169C2.90833 1.81258 2.60951 1.50102 2.01191 1.50102C1.47469 1.50102 0.951635 1.7886 0.442697 2.36382V1.23542C0.828247 0.770697 1.37832 0.537724 2.0929 0.536392C2.55954 0.514826 3.01765 0.671115 3.38066 0.975754C3.498 1.08164 3.59656 1.20806 3.67171 1.34924C3.75453 1.49226 3.81079 1.65009 3.8375 1.81457C3.86705 2.10712 3.87868 2.40126 3.87223 2.69535V2.69135ZM2.90833 4.77439V3.24454L2.24904 3.5082C1.98906 3.60061 1.74787 3.74214 1.5377 3.92558C1.40731 4.06589 1.33444 4.25307 1.33444 4.44788C1.33444 4.64264 1.40731 4.82982 1.5377 4.97013C1.60544 5.03739 1.68562 5.08974 1.77341 5.12406C1.8612 5.15838 1.95479 5.17395 2.04857 5.16986C2.21177 5.16617 2.37268 5.12898 2.52192 5.06039C2.67115 4.99185 2.80576 4.89329 2.91798 4.7704" fill="white"/>
</svg>
