<svg width="2" height="8" viewBox="0 0 2 8" fill="none" xmlns="http://www.w3.org/2000/svg">
<path d="M1.16339 0.468827C1.24047 0.467546 1.31699 0.482299 1.38853 0.512112C1.46003 0.541977 1.52507 0.586287 1.57976 0.642584C1.63577 0.696985 1.68015 0.762963 1.71006 0.836216C1.73991 0.909468 1.75464 0.988407 1.75327 1.06796C1.75393 1.14736 1.7389 1.2261 1.70904 1.2993C1.67924 1.37245 1.63521 1.43848 1.57976 1.49334C1.52553 1.55071 1.46074 1.59615 1.3892 1.62704C1.31765 1.65793 1.24087 1.67355 1.16339 1.67309C1.08834 1.67299 1.01415 1.65675 0.945501 1.6255C0.8768 1.5942 0.815154 1.54856 0.764326 1.49134C0.709385 1.43653 0.665716 1.37076 0.63591 1.29802C0.606053 1.22522 0.59077 1.147 0.59082 1.06796C0.591176 0.989893 0.606766 0.912696 0.636572 0.84098C0.666379 0.769264 0.709842 0.704464 0.764326 0.650523C0.815154 0.593355 0.8768 0.547714 0.945501 0.516415C1.01415 0.485167 1.08834 0.468929 1.16339 0.468827ZM0.677548 2.63572H1.66654V7.78846H0.683336L0.677548 2.63572Z" fill="white"/>
</svg>
